<?xml version="1.0" encoding="utf-8"?>
<!-- Generator: Adobe Illustrator 26.0.1, SVG Export Plug-In . SVG Version: 6.00 Build 0)  -->
<svg version="1.1" id="Layer_1" xmlns="http://www.w3.org/2000/svg" xmlns:xlink="http://www.w3.org/1999/xlink" x="0px" y="0px"
	 viewBox="0 0 576 294" style="enable-background:new 0 0 576 294;" xml:space="preserve">
<style type="text/css">
	.st0{fill-rule:evenodd;clip-rule:evenodd;fill:#F05A26;}
	.st1{fill:#FFFFFF;}
</style>
<rect x="14.2" y="238.2" class="st0" width="547.6" height="32.3"/>
<g>
	<g>
		<path class="st1" d="M118.8,250h-6.2v3.8h5.3v2.5h-5.3v6.5h-2.7v-15.2h8.9V250z"/>
		<path class="st1" d="M122.1,258.3v-6.4c0-3.2,1.4-4.5,5.1-4.5s5.2,1.3,5.2,4.5v6.4c0,3.1-1.6,4.5-5.2,4.5S122.1,261.4,122.1,258.3
			z M129.7,258.1V252c0-1.4-0.4-2.3-2.5-2.3c-2,0-2.4,0.9-2.4,2.3v6.2c0,1.4,0.4,2.3,2.4,2.3S129.7,259.6,129.7,258.1z"/>
		<path class="st1" d="M143.4,262.7l-3-5.4h-1v5.4h-2.7v-15.2h3.8c3.7,0,5.4,1.3,5.4,4.6v0.8c0,2.3-0.8,3.5-2.6,4.1l3.3,5.8H143.4z
			 M140.4,254.8c2,0,2.5-0.7,2.5-2.1v-0.5c0-1.4-0.4-2.2-2.5-2.2h-1.2v4.8H140.4z"/>
		<path class="st1" d="M165.1,262.7h-8.6v-15.2h2.7v12.7h5.9V262.7z"/>
		<path class="st1" d="M167.8,258.3v-6.4c0-3.2,1.4-4.5,5.1-4.5s5.2,1.3,5.2,4.5v6.4c0,3.1-1.6,4.5-5.2,4.5S167.8,261.4,167.8,258.3
			z M175.3,258.1V252c0-1.4-0.4-2.3-2.5-2.3c-2,0-2.4,0.9-2.4,2.3v6.2c0,1.4,0.4,2.3,2.4,2.3S175.3,259.6,175.3,258.1z"/>
		<path class="st1" d="M186.8,249.8c-1.5,0-2.1,0.5-2.1,1.9c0,1.9,1.5,1.8,3.8,2.1c1.8,0.3,3.4,1,3.4,4c0,3.5-1.5,5-5.2,5
			c-3.8,0-5-1.8-5-4.3h2.7c0.1,1.2,0.6,1.8,2.3,1.8c1.6,0,2.4-0.7,2.4-2.4c0-1.8-2.1-1.8-3.8-2c-1.7-0.2-3.5-1.1-3.5-4.2
			c0-2.8,1.7-4.3,4.9-4.3c2.7,0,4.6,1,4.8,4.1h-2.7C188.8,250.2,188.1,249.8,186.8,249.8z"/>
		<path class="st1" d="M211.6,262.7h-2.8L208,260h-3.9l-0.8,2.7h-2.8l4.2-15.2h2.7L211.6,262.7z M207.3,257.3l-1.3-5.6l-1.3,5.6
			H207.3z"/>
		<path class="st1" d="M224.3,262.7h-2.6l-4.5-9.6l0.2,5.8v3.9h-2.7v-15.2h2.7l4.5,10l-0.3-6.4v-3.6h2.7V262.7z"/>
		<path class="st1" d="M233.5,254h5.1v4c0,3.3-1.6,4.8-5.2,4.8s-5.1-1.4-5.1-4.7v-6.1c0-3.1,1.4-4.5,5.1-4.5s5.2,1.3,5.2,4.5h-2.7
			c0-1.4-0.4-2.1-2.5-2.1c-2,0-2.4,0.9-2.4,2.3v6c0,1.4,0.4,2.3,2.4,2.3s2.7-0.8,2.7-2.3v-1.5h-2.6V254z"/>
		<path class="st1" d="M251.4,247.5v2.4h-6v3.9h5.1v2.5h-5.1v4h6.3v2.5h-9v-15.2H251.4z"/>
		<path class="st1" d="M264,262.7h-8.6v-15.2h2.7v12.7h5.9V262.7z"/>
		<path class="st1" d="M276.2,247.5v2.4h-6v3.9h5.1v2.5h-5.1v4h6.3v2.5h-9v-15.2H276.2z"/>
		<path class="st1" d="M284.5,249.8c-1.5,0-2.1,0.5-2.1,1.9c0,1.9,1.5,1.8,3.8,2.1c1.8,0.3,3.4,1,3.4,4c0,3.5-1.5,5-5.2,5
			c-3.8,0-5-1.8-5-4.3h2.7c0.1,1.2,0.6,1.8,2.3,1.8c1.6,0,2.4-0.7,2.4-2.4c0-1.8-2.1-1.8-3.8-2c-1.7-0.2-3.5-1.1-3.5-4.2
			c0-2.8,1.7-4.3,4.9-4.3c2.7,0,4.6,1,4.8,4.1h-2.7C286.5,250.2,285.8,249.8,284.5,249.8z"/>
		<path class="st1" d="M310.1,258c0,3.3-1.6,4.7-5.2,4.7s-5.1-1.4-5.1-4.5V252c0-3.2,1.4-4.5,5.1-4.5s5.2,1.3,5.2,4.7h-2.7
			c0-1.5-0.4-2.3-2.5-2.3c-2,0-2.4,0.8-2.4,2.3v5.9c0,1.4,0.4,2.3,2.4,2.3c2,0,2.5-0.8,2.5-2.3H310.1z"/>
		<path class="st1" d="M313.4,258.3v-6.4c0-3.2,1.4-4.5,5.1-4.5s5.2,1.3,5.2,4.5v6.4c0,3.1-1.6,4.5-5.2,4.5S313.4,261.4,313.4,258.3
			z M320.9,258.1V252c0-1.4-0.4-2.3-2.5-2.3c-2,0-2.4,0.9-2.4,2.3v6.2c0,1.4,0.4,2.3,2.4,2.3S320.9,259.6,320.9,258.1z"/>
		<path class="st1" d="M335,247.5h2.7v10.7c0,3.1-1.9,4.6-5.1,4.6s-5-1.5-5-4.6v-10.7h2.7V258c0,1.4,0.6,2.4,2.3,2.4
			s2.4-0.9,2.4-2.4V247.5z"/>
		<path class="st1" d="M351.6,262.7h-2.6l-4.5-9.6l0.2,5.8v3.9H342v-15.2h2.7l4.5,10l-0.3-6.4v-3.6h2.7V262.7z"/>
		<path class="st1" d="M363.7,250h-3.1v12.7h-2.7V250h-3.2v-2.4h9V250z"/>
		<path class="st1" d="M375.8,247.5l-3.8,8.9v6.4h-2.7v-6.4l-3.9-8.9h2.9l1.2,2.8l1.1,3.3l1.1-3.3l1.1-2.7H375.8z"/>
		<path class="st1" d="M389,249.8c-1.5,0-2.1,0.5-2.1,1.9c0,1.9,1.5,1.8,3.8,2.1c1.8,0.3,3.4,1,3.4,4c0,3.5-1.5,5-5.2,5
			c-3.8,0-5-1.8-5-4.3h2.7c0.1,1.2,0.6,1.8,2.3,1.8c1.6,0,2.4-0.7,2.4-2.4c0-1.8-2.1-1.8-3.8-2c-1.7-0.2-3.5-1.1-3.5-4.2
			c0-2.8,1.7-4.3,4.9-4.3c2.7,0,4.6,1,4.8,4.1h-2.7C391,250.2,390.3,249.8,389,249.8z"/>
		<path class="st1" d="M408.2,262.7h-2.7v-6h-4.7v6H398v-15h2.7v6.5h4.7v-6.5h2.7V262.7z"/>
		<path class="st1" d="M421.3,247.5v2.4h-6v3.9h5.1v2.5h-5.1v4h6.3v2.5h-9v-15.2H421.3z"/>
		<path class="st1" d="M432,262.7l-3-5.4h-1v5.4h-2.7v-15.2h3.8c3.7,0,5.4,1.3,5.4,4.6v0.8c0,2.3-0.8,3.5-2.6,4.1l3.3,5.8H432z
			 M429.1,254.8c2,0,2.5-0.7,2.5-2.1v-0.5c0-1.4-0.4-2.2-2.5-2.2h-1.2v4.8H429.1z"/>
		<path class="st1" d="M441.3,262.7h-2.7v-15.2h2.7V262.7z"/>
		<path class="st1" d="M454.5,250h-6.2v3.8h5.3v2.5h-5.3v6.5h-2.7v-15.2h8.9V250z"/>
		<path class="st1" d="M467,250h-6.2v3.8h5.3v2.5h-5.3v6.5h-2.7v-15.2h8.9V250z"/>
	</g>
</g>
<g>
	<g>
		<path d="M58.4,116.2c-11.7,0-16.5,3.7-16.5,15c0,15,11.9,13.7,29.9,16.5c13.7,2.2,26.8,7.7,26.8,31.4c0,27.4-11.9,39-40.4,39
			c-29.6,0-39-14.3-39-33.4h21.4c0.5,9.1,4.5,14,18,14c12.8,0,18.7-5.4,18.7-18.8c0-14-16.6-14-29.3-15.7
			c-13.4-1.7-27.6-8.3-27.6-32.8c0-22.2,13.6-33.8,37.9-33.8c21.4,0,35.6,7.9,37.6,31.6H74.6C74,119.1,68.8,116.2,58.4,116.2z"/>
		<path d="M177.1,117.6h-24.5v99.3h-21.1v-99.3h-24.7v-19h70.3V117.6z"/>
		<path d="M241.8,216.8l-23.6-41.8h-7.9v41.8h-21.3V98.1H219c28.7,0,42.1,10.5,42.1,35.6v6.2c0,17.6-6.2,27.1-20.5,31.8l26.1,45.2
			H241.8z M219,155.5c15.4,0,19.7-5.4,19.7-16.6v-4c0-11.3-2.9-17.1-19.4-17.1h-9.1v37.8H219z"/>
		<path d="M279,182.5v-50.3c0-25.1,10.9-35.5,39.6-35.5s40.5,10.3,40.5,35.5v50.3c0,24.5-12.3,35.5-40.5,35.5
			C290.4,217.9,279,207,279,182.5z M337.9,181.4v-48.1c0-10.8-2.8-17.7-19.3-17.7c-15.4,0-18.3,6.9-18.3,17.7v48.1
			c0,11.3,2.9,17.7,18.3,17.7C334,199.1,337.9,192.6,337.9,181.4z"/>
		<path d="M454.1,216.8h-20.7l-34.8-75.2l1.8,45v30.2h-21.1V98.3h21.1l34.8,78.2l-2.3-50.1V98.3h21.1V216.8z"/>
		<path d="M513.8,149.3h39.9v30.8c0,26.1-12.3,37.3-40.5,37.3s-39.6-11.3-39.6-36.8V133c0-24.2,10.9-35.5,39.6-35.5
			s40.5,10,40.5,35.5h-21.3c0-11.1-2.8-16.6-19.3-16.6c-15.4,0-18.3,6.9-18.3,17.7v46.6c0,11.3,2.9,17.7,18.3,17.7
			s20.8-6.5,20.8-18.2v-11.6h-20.2V149.3z"/>
	</g>
</g>
<g>
	<g>
		<path d="M249.9,21.3v8.9h-22.6v14.7h19.3v9.2h-19.3v15h23.6v9.3H217V21.3H249.9z"/>
		<path d="M284.2,78.4l-11.3-20.1h-3.8v20.1h-10.2V21.3h14.4c13.8,0,20.2,5,20.2,17.1v3c0,8.5-3,13-9.9,15.3l12.5,21.7H284.2z
			 M273.2,48.9c7.4,0,9.5-2.6,9.5-8V39c0-5.4-1.4-8.2-9.3-8.2H269v18.2H273.2z"/>
		<path d="M313.2,78.5h-10.3V21.4h10.3V78.5z"/>
		<path d="M361.3,60.8c0,12.5-5.9,17.8-19.5,17.8c-13.6,0-19.1-5.3-19.1-17V38.3c0-12.1,5.3-17,19.1-17c13.8,0,19.5,5,19.5,17.7
			h-10.2c0-5.6-1.3-8.7-9.3-8.7c-7.4,0-8.8,3.1-8.8,8.5V61c0,5.4,1.4,8.5,8.8,8.5c7.4,0,9.3-3.1,9.3-8.7H361.3z"/>
	</g>
</g>
<g>
	<g>
		<rect x="15.2" y="39.6" class="st0" width="159.9" height="11.3"/>
		<rect x="15.2" y="59" class="st0" width="159.9" height="11.3"/>
		<rect x="401.3" y="39.6" class="st0" width="159.9" height="11.3"/>
		<rect x="401.3" y="59" class="st0" width="159.9" height="11.3"/>
	</g>
</g>
<g>
	<polygon class="st1" points="34,245.8 36,251.8 42.3,251.8 37.2,255.5 39.1,261.5 34,257.8 28.9,261.5 30.8,255.5 25.7,251.8 
		32.1,251.8 	"/>
	<polygon class="st1" points="56.4,245.8 58.4,251.8 64.7,251.8 59.6,255.5 61.5,261.5 56.4,257.8 51.3,261.5 53.3,255.5 
		48.2,251.8 54.5,251.8 	"/>
	<polygon class="st1" points="78.9,245.8 80.8,251.8 87.1,251.8 82,255.5 84,261.5 78.9,257.8 73.8,261.5 75.7,255.5 70.6,251.8 
		76.9,251.8 	"/>
</g>
<g>
	<polygon class="st1" points="498.4,245.1 500.3,251.1 506.6,251.1 501.5,254.8 503.5,260.8 498.4,257.1 493.3,260.8 495.2,254.8 
		490.1,251.1 496.4,251.1 	"/>
	<polygon class="st1" points="520.8,245.1 522.8,251.1 529.1,251.1 524,254.8 525.9,260.8 520.8,257.1 515.7,260.8 517.6,254.8 
		512.5,251.1 518.9,251.1 	"/>
	<polygon class="st1" points="543.2,245.1 545.2,251.1 551.5,251.1 546.4,254.8 548.3,260.8 543.2,257.1 538.1,260.8 540.1,254.8 
		535,251.1 541.3,251.1 	"/>
</g>
</svg>
